<?xml version="1.0" encoding="UTF-8"?>
<svg id="Layer_2" data-name="Layer 2" xmlns="http://www.w3.org/2000/svg" viewBox="0 0 216.1 118.56">
  <defs>
    <style>
      .cls-1 {
        fill: #231f20;
      }

      .cls-2 {
        fill: #d65f00;
      }

      .cls-3 {
        fill: #7a6569;
      }

      .cls-4 {
        fill: #fff;
      }

      .cls-5 {
        fill: #fbceb0;
      }

      .cls-6 {
        fill: #bc4700;
      }
    </style>
  </defs>
  <g id="artwork">
    <g id="_PMS_" data-name="&amp;lt;PMS&amp;gt;">
      <g id="_Shield_" data-name="&amp;lt;Shield&amp;gt;">
        <path class="cls-6" d="M.05,20.52h50.32v-7.67h-6.3v-2.48h-1.48s-3.26.13-5.71-1.32c-2.42-1.43-2.87-2.8-2.88-2.8v-1.99h-3.23c-.55-2.43-2.73-4.25-5.33-4.25s-4.78,1.82-5.33,4.25h-3.29v1.99s-.46,1.37-2.88,2.8c-2.45,1.45-5.71,1.32-5.71,1.32h-1.93v2.48H0v7.64"/>
        <path class="cls-6" d="M.04,37.05c.07,3.69.61,7.33,1.54,10.9,1.75,6.72,4.97,12.58,10.11,17.32,3.97,3.65,8.53,6.43,13.21,9.05.14.08.4.05.55-.03,3.25-1.8,6.41-3.74,9.42-5.93,6.41-4.66,10.87-10.73,13.25-18.31,1.67-5.3,2.22-10.76,2.26-16.28.02-2.89.02-7.93.02-10.82H.02c0,3.98-.06,10.12.02,14.1M21.54,40.46l3.66-11.27,3.66,11.27h11.85l-9.58,6.96,3.66,11.27-9.58-6.96-9.58,6.96,3.66-11.26-9.58-6.96h11.85Z"/>
        <path class="cls-2" d="M25.34,20.53L25.49.03c-2.6,0-4.78,1.82-5.33,4.25h-3.29v1.99s-.46,1.37-2.88,2.8c-2.45,1.45-5.71,1.32-5.71,1.32h-1.93v2.48H.05v7.64h25.29Z"/>
        <path class="cls-2" d="M25.23,51.74l-9.58,6.96,3.66-11.26-9.58-6.96h11.85l3.66-11.27-.04-6.24H.05c0,3.98-.06,10.12.02,14.1.07,3.69.61,7.33,1.54,10.9,1.75,6.72,4.97,12.58,10.11,17.32,3.97,3.65,8.54,6.43,13.21,9.05.14.08.26.03.26.03l.04-22.63Z"/>
        <polygon class="cls-4" points="40.74 40.46 28.89 40.46 25.23 29.19 21.57 40.46 9.73 40.46 19.31 47.42 15.65 58.69 25.23 51.72 34.82 58.69 31.16 47.42 40.74 40.46"/>
        <polygon class="cls-5" points="25.23 29.19 28.89 40.46 40.74 40.46 31.16 47.42 34.82 58.69 25.23 51.72 25.23 29.19"/>
      </g>
      <path class="cls-1" d="M31.58,71.77c.21,0,.42.05.62.16.2.11.36.26.47.47.11.2.17.41.17.63s-.06.43-.17.63c-.11.2-.27.36-.47.47-.2.11-.41.17-.63.17s-.43-.06-.63-.17c-.2-.11-.36-.27-.47-.47-.11-.2-.17-.41-.17-.63s.06-.43.17-.63c.11-.2.27-.36.47-.47.2-.11.41-.16.62-.16ZM31.58,71.97c-.18,0-.35.05-.52.14-.17.09-.3.22-.39.39-.09.17-.14.34-.14.53s.05.36.14.52c.09.17.22.3.39.39.17.09.34.14.52.14s.36-.05.52-.14c.17-.09.3-.22.39-.39.09-.17.14-.34.14-.52s-.05-.36-.14-.53c-.09-.17-.23-.3-.39-.39-.17-.09-.34-.14-.52-.14ZM31.03,73.72v-1.35h.47c.16,0,.27.01.35.04.07.03.13.07.17.13.04.06.06.13.06.2,0,.1-.04.19-.11.26-.07.07-.16.11-.28.12.05.02.09.04.11.07.05.05.12.14.2.27l.17.27h-.27l-.12-.21c-.09-.17-.17-.27-.23-.32-.04-.03-.1-.05-.17-.05h-.13v.58h-.22ZM31.25,72.96h.27c.13,0,.21-.02.26-.06s.07-.09.07-.15c0-.04-.01-.08-.03-.11-.02-.03-.05-.06-.09-.07-.04-.02-.11-.02-.22-.02h-.25v.41Z"/>
      <g>
        <path class="cls-1" d="M80.36,44.73c1.4-1.89,2.11-4.61,2.11-8.1v-9.46c0-1.57.11-2.65.34-3.2.22-.54.7-.97,1.44-1.27.32-.13.48-.32.48-.56,0-.29-.18-.46-.48-.46-.12,0-.4.02-.85.06-.33.04-1.21.06-2.62.06-.66,0-1.24-.04-1.71-.11-.55-.09-.95-.14-1.23-.15-.16,0-.28.03-.37.11-.09.09-.14.22-.14.4,0,.21.12.48.67.53,1.05.1,1.8.49,2.24,1.18.44.7.67,1.84.67,3.4v9.89c0,3.3-.75,5.8-2.23,7.43-1.47,1.63-3.73,2.45-6.72,2.45-3.34,0-5.74-.99-7.15-2.93-1-1.37-1.51-3.71-1.51-6.96v-9.63l-.04-1.26c0-1.21.12-2.05.36-2.51.23-.44.7-.75,1.39-.9.47-.09.71-.28.71-.59,0-.16-.07-.42-.56-.42-.18,0-.51.02-.99.06-.57.05-.91.08-1.06.08h-1.45l-1.47.02c-.27,0-.69-.02-1.27-.06-.56-.02-1.01-.04-1.32-.04-.7,0-.85.31-.85.57,0,.19.11.44.62.51,1.09.16,1.83.49,2.18.97.36.49.54,1.42.54,2.75l.04,1.09v9.71c0,2.67.46,4.87,1.37,6.54.81,1.46,2.11,2.62,3.86,3.47,1.74.85,3.73,1.27,5.9,1.27,1.87,0,3.65-.36,5.29-1.07,1.65-.71,2.94-1.68,3.82-2.88"/>
        <path class="cls-1" d="M95.65,24.08c.59,0,.78.1.84.16.06.06.16.24.16.8l.02.49v18.97c0,1.04-.16,1.76-.49,2.15-.32.39-.96.65-1.91.77-.49.06-.74.22-.74.49,0,.2.09.53.7.53.13,0,.56-.04,1.3-.11.36-.04.82-.06,1.35-.06l1.49-.02,1.4.02c.9,0,1.47.02,1.7.06.48.08.8.12.96.12.57,0,.66-.33.66-.53,0-.28-.26-.46-.77-.55-1.56-.27-2.34-1.1-2.4-2.54l-.02-.74v-18.76c0-.74.12-.97.19-1.05.07-.07.29-.19.97-.19h5.37c1.04,0,1.74.13,2.09.39h0c.34.25.6.82.76,1.69.09.47.27.71.59.69.24-.02.53-.17.51-.74-.01-.2-.05-.51-.12-.95-.06-.33-.09-.88-.09-1.61,0-1.05-.14-1.32-.25-1.44-.18-.18-.61-.27-1.36-.27h-20.58c-.48,0-.79.11-.95.33-.15.21-.22.61-.22,1.22,0,.58-.1,1.34-.28,2.24-.16.72-.23,1.21-.23,1.49,0,.53.29.63.46.64.46.02.59-.61.64-.82.25-1.12.6-1.88,1.04-2.28.44-.39,1.17-.59,2.16-.59h5.06Z"/>
        <path class="cls-1" d="M139.62,48.35c.38-.04.68-.06.91-.06l1.43-.04,1.42.02c.96,0,1.59.03,1.89.07.82.13,1.33.16,1.55-.08.09-.1.13-.23.12-.4-.02-.26-.26-.43-.72-.49-1.04-.11-1.75-.42-2.11-.91-.37-.5-.55-1.43-.55-2.76v-18.48c0-.61.13-1.16.39-1.63.25-.45.55-.72.91-.79l.78-.17c.46-.1.56-.33.56-.51s-.08-.49-.58-.49c-.13,0-.37.03-.72.08-.54.07-1.49.11-2.85.11-.94,0-1.83-.04-2.66-.13-.6-.06-1.04-.1-1.31-.1-.5,0-.59.27-.6.43-.01.2.09.46.65.57.87.2,1.47.56,1.79,1.08.32.53.49,1.45.49,2.74v6.54c0,.31-.06.51-.17.59-.09.06-.34.13-1,.13h-11.27c-1.03,0-1.27-.12-1.32-.18h0c-.07-.07-.18-.31-.18-1.22v-6.85c0-.92.14-1.57.42-1.95.27-.38.83-.67,1.65-.88.4-.1.61-.29.61-.55,0-.19-.09-.51-.68-.51-.2,0-.46.03-.82.08-.78.1-1.63.15-2.53.15-1.33,0-2.5-.06-3.48-.17-.52-.06-.91-.1-1.16-.12-.22,0-.38.04-.49.14-.09.09-.13.2-.13.35,0,.2.11.46.66.53,1.05.16,1.78.48,2.18.95.4.47.6,1.26.6,2.33v16.43c0,1.77-.1,3.02-.3,3.72-.19.68-.54,1.06-1.06,1.18l-.95.23c-.49.11-.59.37-.59.57,0,.18.08.48.6.48.14,0,.54-.03,1.21-.09.48-.04.88-.06,1.2-.06l1.26-.04,1.61.02c1.17,0,1.94.03,2.28.09.47.06.78.09.95.09.26,0,.45-.06.56-.18.08-.09.12-.2.12-.34-.02-.34-.3-.54-.83-.6-1.11-.12-1.87-.44-2.27-.95-.4-.51-.6-1.42-.6-2.71v-7.01c0-.7.12-.94.22-1.02.11-.09.42-.19,1.28-.19h11.26c.86,0,1.03.09,1.07.12.03.03.13.18.13.96v7.02l-.02.75c0,1.9-.62,2.93-1.9,3.15-.48.07-.74.26-.75.54,0,.15.03.27.12.36.09.09.23.14.42.14.01,0,.03,0,.05,0,.09,0,.5-.03,1.33-.1"/>
        <path class="cls-1" d="M196.01,46.14l-.17.05-1,.48c-.51.27-1.16.41-1.91.41-.93,0-1.65-.26-2.15-.78-.33-.34-.5-1.13-.5-2.34v-9.49h4.41c.47,0,.8-.21.95-.63l.44-1.09c.16-.36.18-.47.18-.52,0-.13-.02-.23-.09-.29-.06-.06-.14-.07-.24-.06-.11.02-.26.1-.47.25-.28.19-.7.29-1.23.29h-3.95l.07-3.18c0-.51-.21-.62-.39-.62-.14,0-.35.11-.83.9-.78,1.25-1.92,2.52-3.4,3.77-.36.31-.54.56-.54.78,0,.19.11.41.62.41h1.58v9.52c0,3.12,1.52,4.7,4.52,4.7.88,0,1.84-.25,2.86-.74,1.06-.51,1.58-.99,1.58-1.46,0-.21-.13-.33-.35-.33"/>
        <path class="cls-1" d="M153.31,32.97c.97,0,1.88.42,2.71,1.24.83.83,1.25,1.73,1.25,2.69,0,.4-.76.49-1.39.49h-6.34c.17-1.35.59-2.43,1.25-3.21h0c.67-.8,1.51-1.21,2.52-1.21M160.34,44.57c-.11.02-.22.07-.34.16-1.61,1.23-3.11,1.85-4.46,1.85-1.71,0-3.18-.73-4.36-2.18-1.18-1.46-1.78-3.28-1.78-5.41v-.3h7.13l1.3.04,1.42.02c.91,0,1.37-.25,1.37-.75,0-.31-.16-.83-.49-1.6-.32-.74-.64-1.34-.95-1.78-1.29-1.8-3.04-2.71-5.2-2.71-1.98,0-3.72.85-5.19,2.53-1.46,1.68-2.21,3.66-2.21,5.89,0,2.35.72,4.35,2.14,5.94,1.43,1.6,3.21,2.41,5.32,2.41,1.87,0,3.66-.66,5.33-1.97.93-.73,1.38-1.29,1.38-1.71,0-.15-.04-.27-.12-.34-.07-.07-.16-.09-.29-.09"/>
        <path class="cls-1" d="M184.92,47.23c-1.25-.21-2.02-.62-2.28-1.21-.23-.54-.35-1.34-.35-2.36v-22.43l.02-.59h0c0-.48-.06-.76-.2-.89-.06-.05-.12-.08-.19-.08-.13,0-.28.05-.47.18-.33.25-.95.55-1.83.9l-1.17.48c-.35.14-.74.26-1.18.36-.39.11-.59.29-.59.53,0,.14.05.32.32.43.1.03.22.04.36.04h0l.95-.04c.74,0,1.1.54,1.1,1.64v21.19c0,.58-.09,1-.27,1.26-.18.25-.55.46-1.09.61-.43.12-.64.32-.62.59,0,.18.1.49.64.49.05,0,.19-.01.74-.1.28-.04,1.03-.06,2.22-.06l2.66-.02c.37,0,.66.02.83.05.23.05.4.08.53.08.17,0,.31-.05.4-.14.09-.1.13-.24.13-.42-.02-.26-.24-.43-.66-.5"/>
        <path class="cls-1" d="M166.76,41.86c1.03-.69,2.51-1.13,4.39-1.31v3.65c0,.92-.21,1.61-.63,2.02-.69.67-1.57,1.01-2.59,1.01-.84,0-1.51-.25-1.99-.73-.49-.49-.73-1.16-.73-1.99,0-1.07.52-1.96,1.56-2.65M176.7,46.96c-.09,0-.24.03-.48.08-.1.02-.25.03-.44.03-.63,0-1.07-.23-1.34-.69-.27-.48-.41-1.31-.41-2.47v-7.48c0-1.43-.5-2.56-1.48-3.35-.97-.78-2.36-1.18-4.11-1.18-1.92,0-3.49.63-4.66,1.88-.87.93-1.31,1.82-1.31,2.63,0,.35.27.67.8.95.5.26,1.07.4,1.68.4.18,0,.31-.05.4-.14.08-.08.11-.19.1-.33-.01-.19-.06-.4-.14-.63-.16-.53-.24-1-.24-1.4,0-1.35.79-2,2.4-2,1.21,0,2.18.37,2.89,1.1.52.53.79,1.52.79,2.94v2.25c-3.13.48-5.38,1.14-6.71,1.94-1.37.83-2.06,2.01-2.06,3.52,0,1.11.37,2.01,1.1,2.68.73.66,1.71,1,2.93,1,1.57,0,3.28-.69,5.1-2.05.85,1.26,1.81,1.9,2.87,1.9.57,0,1.17-.12,1.77-.36.65-.26.96-.52.98-.8,0-.13-.02-.22-.09-.3-.08-.08-.19-.11-.33-.1"/>
        <path class="cls-1" d="M215.48,47.44c-1-.16-1.66-.41-1.95-.74-.3-.33-.45-.97-.45-1.91v-6.06c0-2.02-.57-3.68-1.7-4.94-1.13-1.26-2.63-1.89-4.45-1.89s-3.64.95-5.24,2.82v-12.77c0-.42,0-.75.02-.96.03-.23.04-.39.04-.47,0-.47-.28-.54-.45-.54-.13,0-.29.04-.45.13l-1.5.71c-.97.47-1.87.8-2.66.99-.35.09-.53.27-.53.51,0,.2.11.31.2.36.09.05.2.07.33.07h0l.97-.06c.26-.02.48.05.65.22.33.31.5.96.5,1.93v19.9c0,1.33-.13,1.83-.24,2.02-.16.26-.6.51-1.31.73-.46.13-.54.39-.53.59.01.15.1.41.6.41.17,0,.46-.02.89-.05.94-.07,1.68-.1,2.19-.1,1.47,0,2.45.02,2.9.07.58.06.92.09,1.07.09.47,0,.54-.27.54-.44,0-.32-.25-.51-.76-.59-1.1-.15-1.79-.4-2.06-.76-.28-.36-.41-1.18-.41-2.45v-7.41c0-.79.42-1.51,1.25-2.15.84-.65,1.79-.98,2.82-.98,1.34,0,2.43.46,3.23,1.38.8.92,1.21,2.18,1.21,3.76v6.33l-.02.59c0,.67-.11.96-.2,1.08-.1.12-.37.33-1.15.62-.32.13-.48.3-.46.51,0,.17.11.47.66.47.09,0,.29-.02.61-.05.52-.07,1.36-.1,2.47-.1.67,0,1.49.03,2.42.09.47.04.79.06.95.06.55,0,.64-.29.64-.47,0-.2-.11-.46-.62-.54"/>
        <path class="cls-1" d="M64.59,63.29c-1.17-.39-1.91-.66-2.21-.81-.29-.15-.57-.38-.82-.7-.28-.37-.43-.81-.43-1.32,0-.57.22-1.06.66-1.44.44-.39.99-.58,1.65-.58.83,0,1.59.22,2.26.65.67.43,1.12.98,1.34,1.64.11.33.22.48.35.48.11,0,.25-.06.25-.34,0-.05-.02-.17-.05-.39l-.15-.96c-.08-.52-.12-.83-.12-.93,0-.22-.04-.37-.12-.45-.04-.04-.09-.06-.15-.06-.07,0-.12.02-.14.05l-.13.11c-.11.1-.23.1-.34.05l-.64-.27c-.46-.19-1.04-.29-1.71-.29-1.19,0-2.17.32-2.93.96-.76.64-1.14,1.48-1.14,2.5,0,.91.29,1.66.87,2.23.58.57,1.57,1.09,2.95,1.56,1.32.44,2.13.79,2.4,1.03.53.46.8,1.04.8,1.71s-.29,1.31-.87,1.8c-.58.49-1.3.74-2.14.74s-1.61-.26-2.31-.78c-.71-.51-1.18-1.16-1.39-1.92-.1-.32-.21-.49-.35-.49-.06,0-.12.01-.16.05-.06.05-.08.14-.08.27,0,.24.08.65.24,1.21.14.52.22.8.23.85.07.35.13.57.17.66.04.09.12.18.24.26.27.18.7.35,1.28.48.58.14,1.11.21,1.59.21,1.33,0,2.44-.38,3.29-1.12.85-.75,1.28-1.72,1.28-2.89,0-1.73-1.17-2.99-3.48-3.74"/>
        <path class="cls-1" d="M71.45,67.72c.5-.34,1.23-.55,2.16-.64v1.79c0,.45-.1.79-.31.99-.34.33-.77.5-1.27.5-.41,0-.74-.12-.98-.36-.24-.24-.36-.57-.36-.98,0-.52.26-.96.77-1.3M76.31,70.23s-.12.01-.23.04c-.05.01-.12.02-.21.02-.31,0-.53-.11-.66-.34-.14-.24-.2-.64-.2-1.21v-3.65c0-.69-.24-1.24-.72-1.63-.47-.38-1.14-.57-2-.57-.94,0-1.7.31-2.26.92-.42.45-.64.88-.64,1.28,0,.17.13.32.38.45.24.13.52.19.81.19.08,0,.15-.02.19-.06.04-.04.05-.09.05-.16,0-.09-.03-.19-.07-.31-.08-.26-.12-.49-.12-.69,0-.66.39-.99,1.18-.99.59,0,1.07.18,1.42.54.26.26.39.74.39,1.44v1.11c-1.53.24-2.63.55-3.28.95-.66.4-1,.98-1,1.71,0,.54.18.98.53,1.3.35.32.83.48,1.42.48.77,0,1.6-.34,2.49-1,.41.62.88.93,1.4.93.28,0,.57-.06.86-.18.31-.13.46-.25.47-.38,0-.06-.01-.1-.04-.14-.03-.03-.09-.05-.16-.05"/>
        <path class="cls-1" d="M86.47,70.4l-.39-.06c-.43-.07-.68-.29-.74-.67l-.03-.44v-.28s0-2.23,0-2.23c0-1.15-.2-2.02-.6-2.59-.59-.82-1.39-1.24-2.4-1.24-.88,0-1.73.47-2.54,1.4v-.92c0-.14,0-.25,0-.35,0-.13-.01-.21-.06-.27-.08-.08-.22-.07-.38.02-.05.03-.17.08-.36.18l-.49.24c-.38.18-.78.31-1.19.38-.19.04-.28.11-.28.23,0,.08.04.14.11.18.05.03.11.05.18.05h.4c.27,0,.46.06.56.21.1.15.15.44.15.87v4.21c0,.35-.05.6-.16.75-.1.15-.31.28-.62.39-.13.05-.2.13-.21.22,0,.06.01.11.04.15.04.04.09.06.17.06.06,0,.18-.01.38-.03.19-.03.78-.04,1.76-.04.47,0,.76,0,.87.02.21.04.37.05.48.05.23,0,.26-.14.26-.22,0-.14-.12-.23-.35-.25-.81-.05-1.22-.32-1.25-.81l-.02-.75v-3.56c0-.37.2-.71.58-1.01.39-.3.84-.45,1.35-.45.72,0,1.28.23,1.66.69.39.46.59,1.12.59,1.97v3.21c0,.36-.11.57-.34.62l-.28.07c-.17.04-.21.15-.21.23,0,.11.05.16.09.19l.15.04.27-.02h.36l.92-.03c.55,0,.93.01,1.13.04.18.02.3.03.37.03.14,0,.24-.03.3-.09.04-.04.06-.1.06-.16,0-.12-.11-.2-.3-.23"/>
        <path class="cls-1" d="M141.92,70.42l-.43-.05c-.29-.04-.49-.13-.58-.27-.09-.14-.14-.43-.14-.86v-6.28c0-.21-.09-.27-.17-.27h-.01s-.51.24-.51.24c-.53.28-.98.48-1.32.59-.34.11-.5.21-.51.32,0,.04.01.08.04.11.06.06.17.09.36.09.31,0,.51.07.6.21.09.15.14.48.14.98v4.06c0,.36-.04.63-.11.79-.07.16-.2.26-.39.33l-.18.06c-.17.06-.2.17-.2.25,0,.1.05.22.3.22.07,0,.18,0,.35-.03.07-.01.17-.02.28-.03l.68-.04h.6c.27.01.49.02.65.03.31.03.51.04.61.04.24,0,.3-.11.3-.2,0-.16-.12-.25-.37-.29"/>
        <path class="cls-1" d="M137.34,70.4l-.39-.06c-.43-.07-.68-.29-.74-.67l-.03-.44v-.28s0-2.23,0-2.23c0-1.15-.2-2.02-.6-2.59-.58-.82-1.39-1.24-2.4-1.24-.88,0-1.73.47-2.54,1.4v-.92c0-.14,0-.25,0-.35,0-.13-.01-.21-.06-.27-.08-.08-.22-.07-.38.02-.05.03-.17.08-.36.18l-.49.24c-.38.18-.78.31-1.19.38-.19.04-.28.11-.28.23,0,.08.04.14.11.18.05.03.11.05.18.05h.4c.27,0,.46.06.56.21.1.15.15.44.15.87v4.21c0,.35-.05.6-.16.75-.1.15-.31.28-.62.39-.13.05-.2.13-.21.22,0,.06.01.11.04.15.04.04.09.06.17.06.06,0,.18-.01.38-.03.19-.03.78-.04,1.76-.04.47,0,.76,0,.87.02.21.04.37.05.48.05.23,0,.26-.14.26-.22,0-.14-.12-.23-.35-.25-.81-.05-1.22-.32-1.25-.81l-.02-.75v-3.56c0-.37.2-.71.58-1.01.39-.3.84-.45,1.35-.45.72,0,1.28.23,1.66.69.39.46.59,1.12.59,1.97v3.21c0,.36-.11.57-.34.62l-.28.07c-.17.04-.21.15-.21.23,0,.11.05.16.09.19l.15.04.27-.02h.36l.92-.03c.55,0,.93.01,1.13.04.18.02.3.03.37.03.14,0,.24-.03.3-.09.04-.04.06-.1.05-.16,0-.12-.11-.2-.3-.23"/>
        <path class="cls-1" d="M125.66,67.45c0,.95-.22,1.72-.66,2.27-.43.55-1.03.83-1.78.83-.86,0-1.59-.4-2.17-1.18-.58-.79-.88-1.78-.88-2.95,0-.92.24-1.67.7-2.23.46-.56,1.08-.84,1.84-.84.86,0,1.57.38,2.12,1.14.55.76.83,1.76.83,2.96M122.95,62.88c-1.16,0-2.16.4-2.97,1.2-.81.8-1.23,1.78-1.23,2.92s.39,2.15,1.16,2.91c.77.75,1.76,1.14,2.95,1.14s2.23-.39,3.03-1.17c.8-.78,1.2-1.77,1.2-2.96,0-1.09-.41-2.05-1.22-2.84-.81-.79-1.79-1.19-2.91-1.19"/>
        <path class="cls-1" d="M140.15,59.03c-.14,0-.33.13-.57.4-.24.27-.35.47-.35.63s.11.36.32.62c.22.26.39.39.53.39s.33-.13.56-.4c.23-.27.34-.48.33-.63,0-.08-.03-.17-.1-.26l-.22-.36c-.17-.27-.33-.4-.5-.4"/>
        <path class="cls-1" d="M97.85,64.77c0,.12-.14.18-.42.18h-3.07c-.38,0-.38-.16-.38-.2,0-.03.02-.11.12-.33l1.82-4.04c.06-.14.1-.15.1-.15.04,0,.11.04.2.28l1.54,3.88.05.17h0c.04.12.04.17.04.2M102.91,70.39c-.58-.1-.96-.24-1.15-.42-.19-.18-.43-.64-.72-1.39l-.2-.5-4.01-10.27c-.08-.2-.17-.3-.3-.3s-.22.1-.31.31l-4.79,10.65-.27.61c-.13.28-.31.56-.52.82-.25.32-.4.41-.48.44l-.35.1c-.13.04-.19.12-.19.25,0,.08.04.22.3.22.01,0,.05,0,.52-.05.1,0,.24-.01.41-.01.38,0,.73,0,1.03.02l.89.05c.14,0,.25.01.32.01.13,0,.22-.03.27-.08.03-.03.05-.08.04-.13,0-.13-.12-.22-.33-.26-.42-.09-.7-.2-.84-.33-.13-.12-.2-.32-.2-.6,0-.3.14-.76.41-1.38l.61-1.37c.23-.51.36-.68.43-.73.07-.05.27-.1.83-.1h3.37c.44,0,.57.04.61.07.04.03.13.16.29.57l.47,1.23c.38.97.57,1.63.57,1.95s-.14.53-.43.59l-.29.07c-.22.04-.27.15-.27.24s.04.24.29.24c.07,0,.17-.01.3-.04.21-.04.76-.05,1.61-.05s1.4.02,1.72.05c.19.01.3.02.36.02.25,0,.3-.11.31-.2,0-.14-.1-.24-.32-.28"/>
        <path class="cls-1" d="M149.68,67.45c0,.95-.22,1.72-.66,2.27-.43.55-1.03.83-1.78.83-.86,0-1.59-.4-2.17-1.18-.58-.79-.88-1.78-.88-2.95,0-.92.24-1.67.7-2.23.46-.56,1.08-.84,1.84-.84.86,0,1.57.38,2.12,1.14.55.76.83,1.76.83,2.96M146.97,62.88c-1.16,0-2.16.4-2.97,1.2-.81.8-1.23,1.78-1.23,2.92s.39,2.15,1.16,2.91c.77.75,1.76,1.14,2.95,1.14s2.23-.39,3.03-1.17c.8-.78,1.2-1.77,1.2-2.96,0-1.09-.41-2.05-1.22-2.84-.81-.79-1.79-1.19-2.91-1.19"/>
        <path class="cls-1" d="M112.59,70.4l-.39-.06c-.43-.07-.68-.29-.74-.67l-.03-.44v-.28s0-2.23,0-2.23c0-1.15-.2-2.02-.61-2.59-.59-.82-1.39-1.24-2.4-1.24-.88,0-1.73.47-2.54,1.4v-.92c0-.14,0-.25,0-.35,0-.13-.01-.21-.06-.27-.08-.08-.22-.07-.38.02-.05.03-.17.08-.36.18l-.49.24c-.38.18-.78.31-1.19.38-.19.04-.28.11-.28.23,0,.08.04.14.11.18.05.03.11.05.17.05h.4c.27,0,.46.06.56.21.1.15.15.44.15.87v4.21c0,.35-.05.6-.15.75-.1.15-.31.28-.62.39-.13.05-.2.13-.21.22,0,.06.01.11.04.15.04.04.09.06.17.06.06,0,.18-.01.38-.03.19-.03.78-.04,1.76-.04.47,0,.76,0,.87.02.21.04.37.05.48.05.23,0,.26-.14.26-.22,0-.14-.12-.23-.35-.25-.81-.05-1.22-.32-1.25-.81l-.02-.75v-3.56c0-.37.2-.71.58-1.01.39-.3.84-.45,1.35-.45.72,0,1.28.23,1.66.69.39.46.59,1.12.59,1.97v3.21c0,.36-.11.57-.34.62l-.28.07c-.17.04-.2.15-.2.23,0,.09.03.15.09.19l.15.04.27-.02h.36l.92-.03c.55,0,.93.01,1.13.04.18.02.3.03.37.03.14,0,.24-.03.3-.09.04-.04.06-.1.05-.16,0-.12-.11-.2-.3-.23"/>
        <path class="cls-1" d="M118.45,69.83l-.08.02-.49.23c-.25.13-.57.2-.94.2-.46,0-.81-.13-1.06-.39-.16-.17-.25-.56-.25-1.15v-4.64h2.16c.23,0,.38-.1.46-.3l.21-.53c.08-.18.09-.23.09-.25,0-.06,0-.1-.04-.13-.03-.02-.07-.03-.11-.02-.05,0-.13.05-.23.12-.14.09-.35.14-.61.14h-1.94l.04-1.56c0-.24-.1-.29-.18-.29-.06,0-.16.05-.4.43-.38.61-.94,1.23-1.66,1.84-.18.15-.26.27-.26.37,0,.09.05.19.29.19h.78v4.65c0,1.51.74,2.28,2.19,2.28.43,0,.9-.12,1.39-.36.51-.25.76-.48.76-.7,0-.1-.06-.15-.16-.15"/>
      </g>
      <rect class="cls-6" x="60.09" y="77.62" width="152.93" height="1"/>
      <g id="_IA_" data-name="&amp;lt;IA&amp;gt;">
        <path class="cls-3" d="M60.82,86.12c.42.1.99.25,1,1.06v9.22c0,1.12-.56,1.27-.97,1.37-.23.06-.44.11-.44.34,0,.24.11.32.43.32.08,0,.18,0,.31-.02.27-.02.68-.05,1.42-.05.45,0,.88.02,1.27.04.28.01.52.03.69.03.27,0,.41-.04.41-.23,0-.26-.28-.32-.6-.4-.47-.12-1-.25-1-.94v-9.67c0-.82.48-.95.87-1.06.23-.06.42-.11.42-.31s-.12-.23-.39-.23-.57.02-.84.04c-.27.02-.56.04-.83.04-.33,0-.67-.02-.99-.04-.32-.02-.66-.04-.99-.04-.17,0-.23.06-.23.25s.21.23.45.29Z"/>
        <path class="cls-3" d="M66.12,91.78c.39.05.87.11.87.75v4.46c0,.71-.4.82-.72.91-.18.05-.35.09-.35.26,0,.25.17.27.37.27.07,0,.16,0,.27-.02.24-.02.61-.05,1.26-.05.68,0,1.06.03,1.34.05.15.01.26.02.37.02.24,0,.45-.02.45-.3,0-.23-.26-.27-.57-.32-.45-.07-1.02-.16-1.02-.89v-4.14c0-.11.1-.38.36-.66.24-.26.78-.69,1.71-.69,1.4,0,2.06,1.31,2.06,2.2v3.37c0,.72-.3.83-.52.91-.13.05-.26.1-.26.26,0,.25.17.27.37.27.09,0,.2,0,.33-.02.23-.02.54-.05.97-.05.58,0,.98.03,1.24.05.14.01.25.02.33.02.18,0,.36-.04.36-.3,0-.23-.25-.27-.51-.32-.4-.07-.9-.16-.9-.89v-2.97c0-.5-.07-1.45-.57-2.22-.51-.79-1.32-1.19-2.41-1.19-1.36,0-2.2.91-2.52,1.25-.01.01-.03.03-.04.04v-1.1c0-.22-.14-.34-.27-.34-.18,0-.34.1-.57.23-.33.19-.82.48-1.71.67-.12.02-.2.12-.2.25,0,.19.21.21.46.24Z"/>
        <path class="cls-3" d="M76.11,96.54c0,1.44,0,1.49.45,1.49.15,0,.29.07.46.16.31.15.75.37,1.55.37,1.37,0,2.48-1.13,2.48-2.52,0-1.11-.43-1.73-1.53-2.19-1.81-.72-2.33-1.1-2.33-1.68,0-.66.49-1.1,1.21-1.1,1.2,0,1.58.84,1.78,1.29.08.18.12.27.2.27.09,0,.15-.02.19-.06.08-.08.07-.21.07-.44,0-.07,0-.16,0-.25v-.05c0-.33,0-.74-.1-.87-.24-.29-1.52-.43-1.8-.43-1.51,0-2.48.87-2.48,2.21,0,1.2,1.04,1.71,1.95,2.15.09.04.17.08.26.13.08.04.17.08.26.12.66.3,1.35.61,1.35,1.42,0,.71-.48,1.42-1.55,1.42-1.3,0-1.61-1.08-1.81-1.79-.1-.35-.17-.58-.33-.58-.06,0-.11.02-.15.06-.13.14-.13.47-.12.74,0,.05,0,.09,0,.13Z"/>
        <path class="cls-3" d="M82.8,91.61v4.81c0,1.42.7,2.14,2.07,2.14,1.3,0,2.28-.62,2.28-.93,0-.14-.07-.21-.19-.21s-.23.06-.37.13c-.24.12-.56.29-1.16.29-.75,0-1.18-.37-1.21-1.03v-5.19h2.32l.37-.67c.06-.09.12-.19.12-.28,0-.08-.06-.19-.18-.19-.03,0-.06.02-.1.06-.1.08-.28.24-.6.24h-1.93v-.19c0-.55,0-.91-.03-1.13-.02-.17-.07-.35-.26-.35-.11,0-.21.14-.37.38-.09.13-.21.3-.35.47-.44.48-.77.8-.99,1.02-.28.27-.39.38-.39.48,0,.17.11.18.97.18Z"/>
        <path class="cls-3" d="M91.79,98.18c0-.24-.28-.29-.58-.34-.4-.07-.85-.15-.85-.65v-6.46c0-.21-.14-.34-.27-.34-.2,0-.37.12-.62.28-.29.19-.69.45-1.32.63-.12.02-.2.12-.2.25,0,.18.18.21.35.24.28.05.64.11.64.75v4.25c0,1.03-.31,1.1-.54,1.15-.12.03-.26.06-.26.26.02.23.18.24.32.24.08,0,.19,0,.33-.02.23-.02.55-.05.92-.05.43,0,.8.02,1.1.04.22.01.41.03.57.03.18,0,.39-.03.39-.25Z"/>
        <path class="cls-3" d="M89.65,88.81c.27,0,.81-.75.81-.99s-.53-1-.81-1c-.25,0-.81.79-.81,1s.55.99.81.99Z"/>
        <path class="cls-3" d="M93.01,91.61v4.81c0,1.42.7,2.14,2.07,2.14,1.3,0,2.28-.62,2.28-.93,0-.14-.07-.21-.19-.21s-.23.06-.37.13c-.24.12-.56.29-1.16.29-.75,0-1.18-.37-1.21-1.03v-5.19h2.32l.37-.67c.06-.09.12-.19.12-.28,0-.08-.06-.19-.18-.19-.03,0-.06.02-.1.06-.1.08-.28.24-.6.24h-1.93v-.19c0-.55,0-.91-.03-1.13-.02-.17-.07-.35-.26-.35-.11,0-.21.14-.37.38-.09.13-.21.3-.35.47-.44.48-.77.8-.99,1.02-.28.27-.39.38-.39.48,0,.17.11.18.97.18Z"/>
        <path class="cls-3" d="M101.57,98.56c.99,0,1.83-.43,2.38-1.2v.88c0,.16.06.32.21.32.24,0,.38-.04.54-.09l.08-.02h.07c.2-.05.45-.09.89-.09.37,0,.72-.03.72-.21,0-.23-.29-.28-.57-.33-.33-.06-.56-.11-.56-.3v-6.23c0-.37-.27-.48-.37-.48-.22,0-.38.03-.52.06-.04,0-.09.02-.14.03-.19.05-.44.11-.96.11-.23,0-.37.08-.37.21,0,.24.23.26.44.29.26.03.51.06.51.4v4.7c-.03.49-.9,1.23-1.91,1.23-.03,0-.7,0-1.19-.5-.34-.35-.51-.85-.51-1.49v-4.56c0-.37-.27-.48-.37-.48-.22,0-.38.03-.52.06-.04,0-.09.02-.14.03-.19.05-.44.11-.96.11-.23,0-.37.08-.37.21,0,.24.23.26.44.29.26.03.51.06.51.4v4.2c0,1.45,1.1,2.46,2.68,2.46Z"/>
        <path class="cls-3" d="M107.76,91.61v4.81c0,1.42.7,2.14,2.07,2.14,1.3,0,2.28-.62,2.28-.93,0-.14-.07-.21-.19-.21s-.23.06-.37.13c-.24.12-.56.29-1.16.29-.75,0-1.18-.37-1.21-1.03v-5.19h2.32l.37-.67c.06-.09.12-.19.12-.28,0-.08-.06-.19-.18-.19-.03,0-.06.02-.1.06-.1.08-.28.24-.6.24h-1.93v-.19c0-.55,0-.91-.03-1.13-.02-.17-.07-.35-.26-.35-.11,0-.21.14-.37.38-.09.13-.21.3-.35.47-.44.48-.77.8-.99,1.02-.28.27-.39.38-.39.48,0,.17.11.18.97.18Z"/>
        <path class="cls-3" d="M116.76,98.18c0-.24-.28-.29-.58-.34-.4-.07-.85-.15-.85-.65v-6.46c0-.21-.14-.34-.27-.34-.2,0-.37.12-.62.28-.29.19-.69.45-1.32.63-.12.02-.2.12-.2.25,0,.18.18.21.35.24.28.05.64.11.64.75v4.25c0,1.03-.31,1.1-.54,1.15-.12.03-.26.06-.26.26.02.23.18.24.32.24.08,0,.19,0,.33-.02.23-.02.55-.05.92-.05.43,0,.8.02,1.1.04.22.01.41.03.57.03.18,0,.39-.03.39-.25Z"/>
        <path class="cls-3" d="M114.62,88.81c.27,0,.81-.75.81-.99s-.53-1-.81-1c-.25,0-.81.79-.81,1s.55.99.81.99Z"/>
        <path class="cls-3" d="M121.17,90.53c-2.24,0-4.07,1.86-4.07,4.16s1.6,3.87,4.08,3.87c2.25,0,3.94-1.7,3.94-3.96,0-3.87-3.3-4.07-3.96-4.07ZM121.35,98.08c-1.17,0-1.85-.73-2.21-1.35-.43-.72-.67-1.69-.67-2.67,0-1.4.64-3.03,2.43-3.03,1.39,0,2.87,1.01,2.87,3.84,0,2.1-.84,3.21-2.42,3.21Z"/>
        <path class="cls-3" d="M126.01,91.78c.39.05.87.11.87.75v4.46c0,.71-.4.82-.72.91-.18.05-.35.09-.35.26,0,.25.17.27.37.27.07,0,.16,0,.27-.02.24-.02.61-.05,1.26-.05s1.06.03,1.34.05c.15.01.26.02.37.02.24,0,.45-.02.45-.3,0-.23-.26-.27-.57-.32-.45-.07-1.02-.16-1.02-.89v-4.14c0-.11.1-.38.36-.66.24-.26.78-.69,1.71-.69,1.4,0,2.06,1.31,2.06,2.2v3.37c0,.72-.3.83-.52.91-.13.05-.26.1-.26.26,0,.25.17.27.37.27.09,0,.2,0,.33-.02.23-.02.54-.05.97-.05.58,0,.98.03,1.24.05.14.01.25.02.33.02.18,0,.36-.04.36-.3,0-.23-.25-.27-.51-.32-.4-.07-.9-.16-.9-.89v-2.97c0-.5-.07-1.45-.57-2.22-.51-.79-1.32-1.19-2.41-1.19-1.36,0-2.2.91-2.52,1.25-.01.01-.03.03-.04.04v-1.1c0-.22-.14-.34-.27-.34-.18,0-.34.1-.57.23-.33.19-.82.48-1.71.67-.12.02-.2.12-.2.25,0,.19.21.21.46.24Z"/>
        <path class="cls-3" d="M136.85,93.26c.39,0,.45-.19.45-.39,0-.1-.02-.21-.05-.32-.03-.13-.06-.27-.06-.41,0-.95.69-1.03,1.52-1.03,1.08,0,1.8.61,1.8,1.52v1.34c-4.17.7-4.52,1.83-4.52,2.83,0,1.19.65,1.76,2,1.76.97,0,1.96-.37,2.73-1.01.25.58.75.89,1.42.89.01,0,1.09,0,1.09-.5,0-.18-.2-.18-.28-.18-.04,0-.1,0-.16.02-.06,0-.11.02-.15.02-.22,0-.38-.06-.5-.18-.26-.26-.24-.78-.23-1.2,0-.09,0-.17,0-.24v-3.73c0-1.77-2.22-1.91-2.89-1.91-.98-.03-1.85.27-2.44.83-.39.37-.63.84-.64,1.26,0,.37.59.64.9.64ZM140.23,94.56c.1-.02.19-.04.28-.06v2.03c0,.92-1.19,1.41-1.82,1.41-.99,0-1.43-.42-1.43-1.37,0-1.4,1.78-1.76,2.97-2Z"/>
        <path class="cls-3" d="M144.28,86.24c.36.05.8.11.8.75v10.17c0,.45-.32.6-.58.72-.16.07-.3.14-.3.27,0,.24.15.29.27.29.06,0,.13,0,.23-.02.21-.02.57-.06,1.17-.06.55,0,.97.03,1.27.05.16.01.29.02.38.02.25,0,.46-.02.46-.3,0-.23-.26-.27-.54-.32-.43-.07-.96-.16-.96-.89v-11.74c0-.21-.14-.34-.27-.34-.18,0-.35.1-.58.24-.33.2-.78.47-1.59.66-.12.02-.2.12-.2.25,0,.18.21.21.43.24Z"/>
        <path class="cls-3" d="M72.95,117.89c-.35-.06-.79-.14-1.08-.58-.3-.46-.5-.99-.69-1.5-.07-.18-.14-.37-.21-.54l-3.74-9.27s-.02-.06-.03-.1c-.1-.3-.21-.6-.39-.6-.21,0-.27.14-.77,1.24-.16.35-.36.79-.62,1.35l-4.3,9.18c-.27.6-.67.73-.96.82-.19.06-.36.11-.36.3,0,.15.09.25.21.25.23,0,.48-.02.71-.04.24-.02.49-.04.73-.04s.51.02.75.04c.25.02.51.04.76.04.06,0,.12,0,.17,0,.11,0,.21-.01.28-.08.06-.05.08-.13.08-.24,0-.22-.22-.26-.45-.3-.37-.07-.83-.15-.83-.89,0-.24.07-.5.12-.61l1.15-2.52c.17-.35.46-.35.8-.35h3.96c.46,0,.57.24.74.63l.58,1.5c.04.11.09.24.15.38.18.45.41,1.02.41,1.31,0,.34-.3.45-.6.55-.25.08-.48.16-.48.39s.34.23.45.23c.24,0,.49-.02.73-.04.24-.02.48-.04.73-.04.37,0,.74.02,1.1.04.36.02.74.04,1.11.04.12,0,.3,0,.3-.21,0-.24-.24-.28-.51-.33ZM68.26,112.49s-.12.06-.28.06h-3.56c-.12,0-.2-.02-.22-.06-.02-.04-.01-.1.03-.19l2.03-4.37c.06-.13.1-.13.11-.13,0,0,.04,0,.09.13l1.76,4.34c.04.11.07.19.04.23Z"/>
        <path class="cls-3" d="M81.78,117.9h-.02c-.75-.12-.91-.28-.91-.4v-12.32c0-.21-.14-.34-.27-.34-.19,0-.4.11-.68.25-.38.2-.9.46-1.69.65-.12.02-.2.12-.2.25,0,.19.23.21.49.24.42.05.93.11.93.75v4.14c-.6-.38-1.31-.59-2.06-.59-2.36,0-3.81,2.23-3.81,4.3,0,.94.31,1.88.86,2.56.6.75,1.44,1.16,2.38,1.16,1.02,0,2-.45,2.63-1.21v.89c0,.16.08.32.25.32.06,0,.17-.02.31-.05.23-.04.53-.1.82-.1.59,0,1.19-.1,1.19-.3,0-.18-.11-.19-.22-.21ZM77.1,111.05c1.37,0,2.33.84,2.33,2.04v3.08c0,.52-.41,1.52-1.98,1.52-1.67,0-2.74-2.13-2.74-3.6s.75-3.03,2.4-3.03Z"/>
        <path class="cls-3" d="M89.99,110.73c-.16,0-.32.02-.47.04-.15.02-.31.04-.46.04-.2,0-.39-.02-.57-.04-.18-.02-.36-.04-.55-.04s-.48,0-.48.29c0,.22.22.26.44.29.32.05.68.1.68.66,0,.67-.31,1.3-.62,1.92-.06.12-.12.23-.17.35l-1.16,2.49-1.72-4.21c-.25-.62-.3-.84-.3-.86,0-.24.23-.3.55-.37.23-.05.48-.1.48-.3,0-.25-.22-.25-.46-.25-.08,0-.16,0-.27.02-.18.02-.43.05-.85.05-.77,0-1.03-.03-1.23-.05-.1-.01-.18-.02-.3-.02-.36,0-.43.09-.43.27s.14.21.29.26c.21.07.51.16.7.62l2.72,6.21s.02.04.03.07c.06.15.15.4.38.4s.3-.14.46-.52c.05-.12.12-.28.2-.46l2.75-5.83c.14-.29.4-.38.61-.45.16-.05.3-.1.3-.23,0-.32-.4-.32-.54-.32Z"/>
        <path class="cls-3" d="M98.16,117.75s-.1,0-.16.02c-.06,0-.11.02-.15.02-.22,0-.38-.06-.5-.18-.26-.26-.24-.78-.23-1.2,0-.09,0-.17,0-.24v-3.73c0-1.77-2.22-1.91-2.89-1.91-.04,0-.08,0-.12,0-.93,0-1.75.29-2.32.83-.39.37-.63.84-.64,1.26,0,.37.59.64.9.64.39,0,.45-.19.45-.39,0-.1-.02-.21-.05-.32-.03-.13-.06-.27-.06-.41,0-.95.69-1.03,1.52-1.03,1.08,0,1.8.61,1.8,1.52v1.34c-4.17.7-4.52,1.83-4.52,2.83,0,1.19.65,1.76,2,1.76.97,0,1.96-.37,2.73-1.01.25.58.74.89,1.42.89.01,0,1.1,0,1.1-.5,0-.18-.2-.18-.28-.18ZM95.44,114.56c.1-.02.19-.04.28-.06v2.03c0,.92-1.19,1.41-1.82,1.41-.99,0-1.43-.42-1.43-1.37,0-1.4,1.78-1.76,2.97-2Z"/>
        <path class="cls-3" d="M108.09,117.81c-.4-.07-.9-.16-.9-.89v-2.97c0-.5-.07-1.45-.57-2.22-.51-.79-1.32-1.19-2.41-1.19-1.36,0-2.2.91-2.52,1.25-.01.01-.03.03-.04.04v-1.1c0-.22-.14-.34-.27-.34-.18,0-.34.1-.57.23-.33.19-.82.48-1.71.67-.12.02-.2.12-.2.25,0,.19.21.21.46.24.39.05.87.11.87.75v4.46c0,.71-.4.82-.72.91-.18.05-.35.09-.35.26,0,.25.17.27.37.27.07,0,.16,0,.27-.02.24-.02.61-.05,1.26-.05.68,0,1.06.03,1.34.05.15.01.26.02.37.02.24,0,.45-.02.45-.3,0-.23-.26-.27-.57-.32-.45-.07-1.02-.16-1.02-.89v-4.14c0-.11.1-.38.36-.66.24-.26.78-.69,1.71-.69,1.4,0,2.06,1.31,2.06,2.2v3.37c0,.72-.3.83-.52.91-.13.05-.26.1-.26.26,0,.25.17.27.37.27.09,0,.2,0,.33-.02.23-.02.54-.05.97-.05.58,0,.98.03,1.24.05.14.01.25.02.33.02.18,0,.36-.04.36-.3,0-.23-.25-.27-.51-.32Z"/>
        <path class="cls-3" d="M115.82,116.51c-.1,0-.23.1-.43.24-.4.3-1.08.8-2.04.8-2.17,0-3.14-1.76-3.14-3.5,0-1.36.65-2.83,2.07-2.83.94,0,1.66.35,2.19,1.08,0,.01.02.03.03.05.09.14.26.39.44.39.09,0,.19-.07.19-.43,0-.05,0-.11,0-.18,0-.24,0-.58-.02-.89-.06-.46-1.33-.71-2.23-.71-2.26,0-4.1,1.86-4.1,4.16,0,2.13,1.62,3.87,3.62,3.87,2.56,0,3.6-1.62,3.6-1.89,0-.09-.12-.16-.19-.16Z"/>
        <path class="cls-3" d="M123.51,116.62c-.15,0-.31.11-.52.25-.4.27-1,.68-2.02.68-2.22,0-2.83-2.42-2.85-3.75h4.8c.25,0,.42,0,.52-.1.06-.06.08-.14.08-.26,0-.7-.97-2.91-3.24-2.91-2.11,0-3.58,1.76-3.58,4.28,0,1.17.93,3.74,3.69,3.74,1.63,0,3.24-1.3,3.24-1.76,0-.05,0-.18-.12-.18ZM118.13,113.21c.03-1.01.83-2.17,1.86-2.17s1.95.9,1.95,1.86c0,.23-.08.31-.31.31h-3.5Z"/>
        <path class="cls-3" d="M137.15,117.81c-.4-.07-.89-.16-.89-.89v-3.1c0-.5,0-1.81-.8-2.62-.44-.44-1.05-.66-1.83-.66-1.11,0-1.88.39-2.5,1.27-.55-.9-1.23-1.27-2.33-1.27-.71,0-1.41.37-2.09,1.11v-.91c0-.22-.14-.34-.27-.34-.19,0-.36.11-.6.25-.31.2-.74.46-1.48.65-.12.02-.2.12-.2.25,0,.18.19.21.4.24.33.05.74.11.74.75v4.63c0,.46-.27.6-.48.72-.14.08-.26.14-.26.27,0,.18.1.29.27.29.08,0,.18,0,.3-.02.23-.02.55-.05,1.03-.05s.9.03,1.2.05c.17.01.3.02.38.02.18,0,.36-.04.36-.3,0-.23-.24-.27-.5-.32-.4-.07-.89-.16-.89-.89v-4.09c0-1.25,1.23-1.53,1.66-1.53.84,0,1.7.64,1.7,2.06v3.8c0,.46-.27.6-.48.72-.14.08-.26.14-.26.27,0,.18.1.29.27.29.08,0,.18,0,.3-.02.23-.02.56-.05,1.03-.05s.9.03,1.2.05c.17.01.3.02.38.02.18,0,.36-.04.36-.3,0-.23-.24-.27-.5-.32-.4-.07-.89-.16-.89-.89v-4.66c0-.23.71-.96,1.53-.96,1.69,0,1.82,1.81,1.82,2.36v3.49c0,.46-.27.6-.48.72-.14.08-.26.14-.26.27,0,.18.1.29.27.29.08,0,.18,0,.3-.02.23-.02.56-.05,1.03-.05s.9.03,1.2.05c.17.01.3.02.38.02.18,0,.36-.04.36-.3,0-.23-.24-.27-.5-.32Z"/>
        <path class="cls-3" d="M144.77,116.62c-.15,0-.31.11-.52.25-.4.27-1,.68-2.02.68-2.22,0-2.83-2.42-2.85-3.75h4.8c.25,0,.42,0,.52-.1.06-.06.08-.14.08-.26,0-.7-.97-2.91-3.24-2.91-2.11,0-3.58,1.76-3.58,4.28,0,1.17.93,3.74,3.69,3.74,1.63,0,3.24-1.3,3.24-1.76,0-.05,0-.18-.12-.18ZM139.38,113.21c.03-1.01.83-2.17,1.86-2.17s1.95.9,1.95,1.86c0,.23-.08.31-.31.31h-3.5Z"/>
        <path class="cls-3" d="M154.5,117.81c-.4-.07-.9-.16-.9-.89v-2.97c0-.5-.07-1.45-.57-2.22-.51-.79-1.32-1.19-2.41-1.19-1.36,0-2.2.91-2.52,1.25-.01.01-.03.03-.04.04v-1.1c0-.22-.14-.34-.27-.34-.18,0-.34.1-.57.23-.33.19-.82.48-1.71.67-.12.02-.2.12-.2.25,0,.19.21.21.46.24.39.05.87.11.87.75v4.46c0,.71-.4.82-.72.91-.18.05-.35.09-.35.26,0,.25.17.27.37.27.07,0,.16,0,.27-.02.24-.02.61-.05,1.26-.05s1.06.03,1.34.05c.15.01.26.02.37.02.24,0,.45-.02.45-.3,0-.23-.26-.27-.57-.32-.45-.07-1.02-.16-1.02-.89v-4.14c0-.11.1-.38.36-.66.24-.26.78-.69,1.71-.69,1.4,0,2.06,1.31,2.06,2.2v3.37c0,.72-.3.83-.52.91-.13.05-.26.1-.26.26,0,.25.17.27.37.27.09,0,.2,0,.33-.02.23-.02.54-.05.97-.05.58,0,.98.03,1.24.05.14.01.25.02.33.02.18,0,.36-.04.36-.3,0-.23-.25-.27-.51-.32Z"/>
        <path class="cls-3" d="M160.25,117.41c-.12,0-.23.06-.37.13-.24.12-.56.29-1.16.29-.75,0-1.18-.37-1.21-1.03v-5.19h2.32l.37-.67c.06-.09.12-.19.12-.28,0-.08-.06-.19-.18-.19-.03,0-.06.02-.1.06-.1.08-.28.24-.6.24h-1.93v-.19c0-.55,0-.91-.03-1.13-.02-.17-.07-.35-.26-.35-.11,0-.21.14-.37.38-.09.13-.21.3-.35.47-.44.48-.77.8-.99,1.02-.28.27-.39.38-.39.48,0,.17.11.18.97.18v4.81c0,1.42.7,2.14,2.07,2.14,1.3,0,2.28-.62,2.28-.93,0-.14-.07-.21-.19-.21Z"/>
      </g>
    </g>
  </g>
</svg>